<svg version="1.1" id="Layer_1" xmlns="http://www.w3.org/2000/svg" xmlns:xlink="http://www.w3.org/1999/xlink" x="0px" y="0px"
	 width="170px" height="191.2px" viewBox="0 -11.2 170 191.2" enable-background="new 0 -11.2 170 191.2" xml:space="preserve">
<g id="Layer_x0020_1">
	<defs>
		<filter id="Adobe_OpacityMaskFilter" filterUnits="userSpaceOnUse" x="1.2" y="0.4" width="167.6" height="179.2">
			<feColorMatrix  type="matrix" values="1 0 0 0 0  0 1 0 0 0  0 0 1 0 0  0 0 0 1 0"/>
		</filter>
	</defs>
	<mask maskUnits="userSpaceOnUse" x="1.2" y="0.4" width="167.6" height="179.2" id="id0">
		
			<linearGradient id="SVGID_1_" gradientUnits="userSpaceOnUse" x1="2749.5" y1="-1922.4067" x2="2749.5" y2="-4525.4805" gradientTransform="matrix(0.1 0 0 -0.1 -189.9501 -281.8502)">
			<stop  offset="0" style="stop-color:#FFFFFF"/>
			<stop  offset="1" style="stop-color:#FFFFFF;stop-opacity:0"/>
		</linearGradient>
		<rect x="1.2" y="0.4" fill="url(#SVGID_1_)" filter="url(#Adobe_OpacityMaskFilter)" width="167.6" height="179.3"/>
	</mask>
	<path mask="url(#id0)" fill="#00A5E4" d="M66.6,2.7H6.5C5.7,2.7,5,3.1,4.4,3.6C3.9,4.1,3.5,4.9,3.5,5.7v168.6
		c0,0.8,0.4,1.601,0.9,2.101c0.6,0.5,1.3,0.899,2.1,0.899h157c0.8,0,1.5-0.399,2.1-0.899c0.5-0.5,0.9-1.301,0.9-2.101V5.7
		c0-0.8-0.4-1.6-0.9-2.1c-0.6-0.5-1.3-0.9-2.1-0.9h-60.1V0.4h60.1c1.4,0,2.8,0.6,3.7,1.5c1,1,1.6,2.4,1.6,3.8v168.6
		c0,1.4-0.6,2.8-1.6,3.8c-0.9,0.9-2.3,1.5-3.7,1.5H6.5c-1.4,0-2.8-0.6-3.7-1.5c-1-1-1.6-2.399-1.6-3.8V5.7c0-1.4,0.6-2.8,1.6-3.8
		C3.7,1,5.1,0.4,6.5,0.4h60.1V2.7z"/>
</g>
<g id="Layer_x0020_1_1_">
	<g id="_2202849239968">
		<path fill="#00A5E4" d="M90.1,7.4v-5.1V-0.3v-3.1v-2c0-0.7-0.6-1.3-1.301-1.3H81.2c-0.7,0-1.3,0.6-1.3,1.3v1.9v1.9V1v6.4V10h10.2
			V7.4z M81.2-11.2h7.599c0.701,0,1.301,0.6,1.301,1.3l0,0c0,0.7-0.6,1.3-1.301,1.3H81.2c-0.7,0-1.3-0.6-1.3-1.3l0,0
			C79.899-10.6,80.5-11.2,81.2-11.2z M82.399-4.1h5.2V7.4h-5.2V-4.1z"/>
		<path fill="#00A5E4" fill-opacity="0.502" d="M95.199,7.4h-5.1V10h6.4c0.699,0,1.299-0.6,1.299-1.3V1c0-0.699-0.6-1.3-1.299-1.3
			h-6.4v2.601h5.1V7.4z M79.899,10V7.4h-5.1V1h5.1v-2.6h-6.4c-0.7,0-1.3,0.6-1.3,1.3v9c0,0.7,0.6,1.3,1.3,1.3H79.899z"/>
	</g>
</g>
</svg>
